<?xml version="1.0" standalone="no"?>
<!DOCTYPE svg PUBLIC "-//W3C//DTD SVG 20010904//EN"
 "http://www.w3.org/TR/2001/REC-SVG-20010904/DTD/svg10.dtd">
<svg version="1.0" xmlns="http://www.w3.org/2000/svg"
 width="419.000000pt" height="419.000000pt" viewBox="0 0 419.000000 419.000000"
 preserveAspectRatio="xMidYMid meet">
<metadata>
Created by potrace 1.11, written by Peter Selinger 2001-2013
</metadata>
<g transform="translate(0.000000,419.000000) scale(0.100000,-0.100000)"
fill="#000000" stroke="none">
<path d="M1987 3519 c-336 -35 -608 -241 -704 -534 -65 -198 -17 -496 141
-860 95 -220 235 -459 532 -909 l131 -198 60 78 c32 44 94 140 138 214 43 74
124 207 180 295 203 320 288 495 395 813 70 209 85 304 69 432 -28 228 -137
401 -332 528 -170 111 -396 163 -610 141z m174 -359 c128 -24 243 -112 297
-228 23 -48 27 -71 27 -142 0 -76 -4 -93 -33 -152 -148 -302 -611 -297 -754 8
-26 56 -31 77 -31 145 0 72 4 87 37 154 81 164 266 251 457 215z"/>
<path d="M1205 1505 c-140 -36 -284 -93 -364 -144 -57 -37 -137 -119 -151
-156 -14 -38 -12 -100 5 -140 46 -112 266 -234 540 -301 139 -33 140 -33 116
14 -17 34 -25 39 -92 56 -231 58 -419 158 -465 247 -61 119 76 245 366 337 52
17 112 33 133 37 29 6 44 16 58 39 35 57 31 58 -146 11z"/>
<path d="M2830 1535 c0 -4 7 -19 15 -35 11 -21 27 -32 58 -41 393 -104 562
-229 507 -373 -15 -40 -83 -100 -157 -139 -76 -39 -237 -98 -326 -118 -52 -11
-60 -16 -78 -51 -23 -45 -24 -45 91 -18 326 78 533 201 570 342 44 160 -196
334 -578 418 -96 22 -102 22 -102 15z"/>
<path d="M1483 1405 c-330 -61 -501 -183 -409 -293 54 -63 223 -128 425 -163
63 -10 115 -18 117 -17 1 2 -5 12 -14 23 -12 14 -45 26 -107 38 -186 38 -324
96 -361 152 -52 79 100 169 375 221 66 13 95 23 102 36 8 16 5 18 -23 17 -18
-1 -65 -7 -105 -14z"/>
<path d="M2540 1412 c0 -19 27 -30 127 -51 370 -78 465 -192 245 -293 -63 -29
-277 -88 -318 -88 -12 0 -29 -10 -37 -23 l-15 -23 91 13 c116 17 253 55 333
93 69 33 134 98 134 134 0 61 -79 126 -210 172 -125 43 -350 86 -350 66z"/>
</g>
</svg>
